<?xml version="1.0" encoding="UTF-8"?>
<!-- Title: 1. C:\Users\user\Google Drive\work\delusional_social_network\data\patricia1993.net (107) -->
<!-- Creator: Pajek 5.07: http://mrvar.fdv.uni-lj.si/pajek -->
<!-- CreationDate: 09-03-2019, 18:16:36 -->
<svg xml:space="preserve" viewBox="0 0 1296 696" xmlns="http://www.w3.org/2000/svg" xmlns:xlink="http://www.w3.org/1999/xlink" xmlns:inkscape="http://www.inkscape.org/namespaces/inkscape">
<title>1. C:\Users\user\Google Drive\work\delusional_social_network\data\patricia1993.net (107)</title>
<g inkscape:groupmode="layer" id="PajekSig" inkscape:label="PajekSignature">
<g transform="translate(3 678)">
<g transform="scale(0.1)">
<g transform="matrix(1 0 0 -1 0 96)">
<path d="M   7.67  49.98 L  31.76  72.76 L  46.91  78.63
         L  57.23  80.49 M  72.86  65.23 L  65.73  83.25
         L  57.06  75.49 L  56.75  68.65 M  76.27  68.03
         L  75.65  84.50 L  93.92  91.02 L 107.24  74.87
         M  80.29  67.72 L  89.28  84.81 L 104.77  81.70
         L 116.23  73.31 L 121.18  59.33 M  56.75  81.08
         L  71.31  64.30"
         style="fill:none; stroke:saddlebrown; stroke-width:5;"/>
<path d="M  86.18  70.21 L  91.45  73.00 L  95.78  69.58
         M  91.14  60.88 L  96.09  62.75 L  98.26  59.33"
         style="fill:none; stroke:saddlebrown; stroke-width:1.5;"/>
<path d="M  81.07  49.08 L  87.81  49.08 L  93.30  54.38
         L  93.30  60.88 L  93.30  67.39 L  87.81  72.69
         L  81.07  72.69 L  74.33  72.69 L  68.83  67.39
         L  68.83  60.88 L  68.83  54.38 L  74.33  49.08
         L  81.07  49.08 z"
         style="fill:maroon; stroke:saddlebrown; stroke-width:1;"/>
<path d="M  54.63  37.53 L  68.53  43.56 L  75.39  55.85
         L  69.90  65.35 L  64.41  72.86 L  48.60  74.06
         L  34.71  68.04 L  20.81  55.02 L  15.95  40.72
         L  17.44  33.22 L  24.92  28.72 L  40.73  30.51
         L  54.63  37.53 z"
         style="fill:maroon; stroke:saddlebrown; stroke-width:1;" />
<path d="M  77.82  50.63 L 103.84  59.33 L 131.10  43.80
         L 139.46  27.95 L 139.15  15.83 M  35.99   5.27
         L  47.15  32.92 L  61.71  50.01 L  70.07  46.90
         L  82.77  45.04 L  83.39  27.02 L  65.42  12.11
         M  68.52  50.63 L  91.14  49.39 L 103.53  43.17
         L 117.16  22.67 L 115.30   8.38"
         style="fill:none; stroke:saddlebrown; stroke-width:5;"/>
<path d="M  41.57  54.98 L  60.16  64.61 M  52.41  66.17
         L  57.99  57.47"
         style="fill:none; stroke:white; stroke-width:5;"/>
</g>
</g>
<animateMotion dur="20s" path="M3 0 L1278 0" begin="120s" fill="freeze"/>
</g>
<g transform="translate(3 678)">
<g transform="scale(0.1)">
<text x="5" y="140" style="font-family:Brush Script MT;font-size:75px;fill:green;">Pajek</text>
</g>
<animateMotion dur="0.1s" path="M3 0 L1278 0" begin="120s" fill="freeze"/>
</g>
</g>      <!-- Layer Signature -->

<g inkscape:groupmode="layer" id="PajekNet" inkscape:label="PajekNetwork">

<!-- Edge:     1    5 -->
<line x1="259.20" y1="378.07" x2="195.44" y2="404.24" style="stroke-width:2.00;stroke:rgb(0,112,145)"/>
<!-- Edge:     1  100 -->
<line x1="259.20" y1="378.07" x2="276.44" y2="335.40" style="stroke-width:2.00;stroke:rgb(0,112,145)"/>
<!-- Edge:     2   33 -->
<line x1="602.38" y1="423.93" x2="600.44" y2="469.80" style="stroke-width:2.00;stroke:rgb(0,112,145)"/>
<!-- Edge:     2   87 -->
<line x1="602.38" y1="423.93" x2="589.29" y2="360.60" style="stroke-width:2.00;stroke:rgb(0,112,145)"/>
<!-- Edge:     3    7 -->
<line x1="160.96" y1="297.19" x2="207.62" y2="327.82" style="stroke-width:2.00;stroke:rgb(0,112,145)"/>
<!-- Edge:     3   41 -->
<line x1="160.96" y1="297.19" x2="123.51" y2="262.25" style="stroke-width:2.00;stroke:rgb(0,112,145)"/>
<!-- Edge:     3   52 -->
<line x1="160.96" y1="297.19" x2="140.75" y2="425.05" style="stroke-width:2.00;stroke:rgb(0,112,145)"/>
<!-- Edge:     3   78 -->
<line x1="160.96" y1="297.19" x2="194.40" y2="196.69" style="stroke-width:2.00;stroke:rgb(0,112,145)"/>
<!-- Edge:     4   18 -->
<line x1="925.47" y1="417.39" x2="912.25" y2="335.40" style="stroke-width:2.00;stroke:rgb(0,112,145)"/>
<!-- Edge:     4   98 -->
<line x1="925.47" y1="417.39" x2="989.24" y2="414.12" style="stroke-width:2.00;stroke:rgb(0,112,145)"/>
<!-- Edge:     5    7 -->
<line x1="195.44" y1="404.24" x2="207.62" y2="327.82" style="stroke-width:2.00;stroke:rgb(0,112,145)"/>
<!-- Edge:     5   52 -->
<line x1="195.44" y1="404.24" x2="140.75" y2="425.05" style="stroke-width:2.00;stroke:rgb(0,112,145)"/>
<!-- Edge:     6   42 -->
<line x1="697.64" y1="172.61" x2="682.47" y2="92.85" style="stroke-width:2.00;stroke:rgb(0,112,145)"/>
<!-- Edge:     6   68 -->
<line x1="697.64" y1="172.61" x2="692.58" y2="220.70" style="stroke-width:2.00;stroke:rgb(0,112,145)"/>
<!-- Edge:     6   94 -->
<line x1="697.64" y1="172.61" x2="619.62" y2="158.41" style="stroke-width:2.00;stroke:rgb(0,112,145)"/>
<!-- Edge:     7   52 -->
<line x1="207.62" y1="327.82" x2="140.75" y2="425.05" style="stroke-width:2.00;stroke:rgb(0,112,145)"/>
<!-- Edge:     7   78 -->
<line x1="207.62" y1="327.82" x2="194.40" y2="196.69" style="stroke-width:2.00;stroke:rgb(0,112,145)"/>
<!-- Edge:     8   60 -->
<line x1="984.18" y1="152.98" x2="996.36" y2="185.76" style="stroke-width:2.00;stroke:rgb(0,112,145)"/>
<!-- Edge:     8   99 -->
<line x1="984.18" y1="152.98" x2="869.75" y2="123.47" style="stroke-width:2.00;stroke:rgb(0,112,145)"/>
<!-- Edge:     9   65 -->
<line x1="371.56" y1="435.97" x2="372.60" y2="388.99" style="stroke-width:2.00;stroke:rgb(0,112,145)"/>
<!-- Edge:     9   90 -->
<line x1="371.56" y1="435.97" x2="431.31" y2="427.20" style="stroke-width:2.00;stroke:rgb(0,112,145)"/>
<!-- Edge:    10   43 -->
<line x1="1074.25" y1="571.42" x2="1007.38" y2="528.82" style="stroke-width:2.00;stroke:rgb(0,112,145)"/>
<!-- Edge:    10   45 -->
<line x1="1074.25" y1="571.42" x2="1044.96" y2="610.81" style="stroke-width:2.00;stroke:rgb(0,112,145)"/>
<!-- Edge:    11   26 -->
<line x1="717.85" y1="539.75" x2="668.22" y2="509.19" style="stroke-width:2.00;stroke:rgb(0,112,145)"/>
<!-- Edge:    11   40 -->
<line x1="717.85" y1="539.75" x2="743.13" y2="490.61" style="stroke-width:2.00;stroke:rgb(0,112,145)"/>
<!-- Edge:    11   88 -->
<line x1="717.85" y1="539.75" x2="753.36" y2="516.78" style="stroke-width:2.00;stroke:rgb(0,112,145)"/>
<!-- Edge:    11   57 -->
<line x1="717.85" y1="539.75" x2="815.05" y2="529.93" style="stroke-width:2.00;stroke:rgb(0,112,145)"/>
<!-- Edge:    11   79 -->
<line x1="717.85" y1="539.75" x2="711.76" y2="585.61" style="stroke-width:2.00;stroke:rgb(0,112,145)"/>
<!-- Edge:    11   92 -->
<line x1="717.85" y1="539.75" x2="645.02" y2="594.38" style="stroke-width:2.00;stroke:rgb(0,112,145)"/>
<!-- Edge:    11   35 -->
<line x1="717.85" y1="539.75" x2="616.64" y2="548.52" style="stroke-width:2.00;stroke:rgb(0,112,145)"/>
<!-- Edge:    12   87 -->
<line x1="501.16" y1="376.95" x2="589.29" y2="360.60" style="stroke-width:2.00;stroke:rgb(0,112,145)"/>
<!-- Edge:    13   51 -->
<line x1="298.73" y1="25.13" x2="249.09" y2="45.87" style="stroke-width:2.00;stroke:rgb(0,112,145)"/>
<!-- Edge:    14   36 -->
<line x1="1019.56" y1="456.72" x2="1062.07" y2="395.54" style="stroke-width:2.00;stroke:rgb(0,112,145)"/>
<!-- Edge:    14   43 -->
<line x1="1019.56" y1="456.72" x2="1007.38" y2="528.82" style="stroke-width:2.00;stroke:rgb(0,112,145)"/>
<!-- Edge:    15   31 -->
<line x1="592.27" y1="37.17" x2="675.35" y2="50.25" style="stroke-width:2.00;stroke:rgb(0,112,145)"/>
<!-- Edge:    15   55 -->
<line x1="592.27" y1="37.17" x2="511.27" y2="42.60" style="stroke-width:2.00;stroke:rgb(0,112,145)"/>
<!-- Edge:    16   57 -->
<line x1="899.16" y1="501.54" x2="815.05" y2="529.93" style="stroke-width:2.00;stroke:rgb(0,112,145)"/>
<!-- Edge:    17   78 -->
<line x1="74.91" y1="69.95" x2="194.40" y2="196.69" style="stroke-width:2.00;stroke:rgb(0,112,145)"/>
<!-- Edge:    18   63 -->
<line x1="912.25" y1="335.40" x2="919.38" y2="267.68" style="stroke-width:2.00;stroke:rgb(0,112,145)"/>
<!-- Edge:    18   81 -->
<line x1="912.25" y1="335.40" x2="957.87" y2="322.32" style="stroke-width:2.00;stroke:rgb(0,112,145)"/>
<!-- Edge:    18   36 -->
<line x1="912.25" y1="335.40" x2="1062.07" y2="395.54" style="stroke-width:2.00;stroke:rgb(0,112,145)"/>
<!-- Edge:    18   38 -->
<line x1="912.25" y1="335.40" x2="851.47" y2="369.30" style="stroke-width:2.00;stroke:rgb(0,112,145)"/>
<!-- Edge:    18   77 -->
<line x1="912.25" y1="335.40" x2="865.73" y2="303.73" style="stroke-width:2.00;stroke:rgb(0,112,145)"/>
<!-- Edge:    18   98 -->
<line x1="912.25" y1="335.40" x2="989.24" y2="414.12" style="stroke-width:2.00;stroke:rgb(0,112,145)"/>
<!-- Edge:    19   99 -->
<line x1="993.25" y1="115.81" x2="869.75" y2="123.47" style="stroke-width:2.00;stroke:rgb(0,112,145)"/>
<!-- Edge:    20   51 -->
<line x1="261.27" y1="231.63" x2="249.09" y2="45.87" style="stroke-width:2.00;stroke:rgb(0,112,145)"/>
<!-- Edge:    20  100 -->
<line x1="261.27" y1="231.63" x2="276.44" y2="335.40" style="stroke-width:2.00;stroke:rgb(0,112,145)"/>
<!-- Edge:    20   53 -->
<line x1="261.27" y1="231.63" x2="326.07" y2="181.38" style="stroke-width:2.00;stroke:rgb(0,112,145)"/>
<!-- Edge:    21   87 -->
<line x1="558.96" y1="284.11" x2="589.29" y2="360.60" style="stroke-width:2.00;stroke:rgb(0,112,145)"/>
<!-- Edge:    21   93 -->
<line x1="558.96" y1="284.11" x2="659.15" y2="277.50" style="stroke-width:2.00;stroke:rgb(0,112,145)"/>
<!-- Edge:    22   67 -->
<line x1="634.78" y1="243.67" x2="588.25" y2="216.32" style="stroke-width:2.00;stroke:rgb(0,112,145)"/>
<!-- Edge:    22   93 -->
<line x1="634.78" y1="243.67" x2="659.15" y2="277.50" style="stroke-width:2.00;stroke:rgb(0,112,145)"/>
<!-- Edge:    23   99 -->
<line x1="872.73" y1="77.60" x2="869.75" y2="123.47" style="stroke-width:2.00;stroke:rgb(0,112,145)"/>
<!-- Edge:    23   76 -->
<line x1="872.73" y1="77.60" x2="868.06" y2="35.22" style="stroke-width:2.00;stroke:rgb(0,112,145)"/>
<!-- Edge:    24   69 -->
<line x1="422.24" y1="515.74" x2="334.11" y2="508.08" style="stroke-width:2.00;stroke:rgb(0,112,145)"/>
<!-- Edge:    24   83 -->
<line x1="422.24" y1="515.74" x2="344.22" y2="469.80" style="stroke-width:2.00;stroke:rgb(0,112,145)"/>
<!-- Edge:    25   73 -->
<line x1="1197.76" y1="541.91" x2="1192.71" y2="496.04" style="stroke-width:2.00;stroke:rgb(0,112,145)"/>
<!-- Edge:    27   67 -->
<line x1="616.64" y1="198.85" x2="588.25" y2="216.32" style="stroke-width:2.00;stroke:rgb(0,112,145)"/>
<!-- Edge:    27   80 -->
<line x1="616.64" y1="198.85" x2="545.75" y2="204.35" style="stroke-width:2.00;stroke:rgb(0,112,145)"/>
<!-- Edge:    28   99 -->
<line x1="898.39" y1="170.24" x2="869.75" y2="123.47" style="stroke-width:2.00;stroke:rgb(0,112,145)"/>
<!-- Edge:    29   99 -->
<line x1="807.93" y1="98.34" x2="869.75" y2="123.47" style="stroke-width:2.00;stroke:rgb(0,112,145)"/>
<!-- Edge:    30   32 -->
<line x1="338.13" y1="88.53" x2="369.62" y2="62.29" style="stroke-width:2.00;stroke:rgb(0,112,145)"/>
<!-- Edge:    30   51 -->
<line x1="338.13" y1="88.53" x2="249.09" y2="45.87" style="stroke-width:2.00;stroke:rgb(0,112,145)"/>
<!-- Edge:    31   72 -->
<line x1="675.35" y1="50.25" x2="627.78" y2="8.77" style="stroke-width:2.00;stroke:rgb(0,112,145)"/>
<!-- Edge:    31  103 -->
<line x1="675.35" y1="50.25" x2="624.67" y2="69.95" style="stroke-width:2.00;stroke:rgb(0,112,145)"/>
<!-- Edge:    31   71 -->
<line x1="675.35" y1="50.25" x2="690.51" y2="15.31" style="stroke-width:2.00;stroke:rgb(0,112,145)"/>
<!-- Edge:    31   42 -->
<line x1="675.35" y1="50.25" x2="682.47" y2="92.85" style="stroke-width:2.00;stroke:rgb(0,112,145)"/>
<!-- Edge:    33   58 -->
<line x1="600.44" y1="469.80" x2="519.44" y2="444.67" style="stroke-width:2.00;stroke:rgb(0,112,145)"/>
<!-- Edge:    33   37 -->
<line x1="600.44" y1="469.80" x2="671.33" y2="447.95" style="stroke-width:2.00;stroke:rgb(0,112,145)"/>
<!-- Edge:    34   40 -->
<line x1="784.73" y1="464.37" x2="743.13" y2="490.61" style="stroke-width:2.00;stroke:rgb(0,112,145)"/>
<!-- Edge:    36   98 -->
<line x1="1062.07" y1="395.54" x2="989.24" y2="414.12" style="stroke-width:2.00;stroke:rgb(0,112,145)"/>
<!-- Edge:    39   42 -->
<line x1="558.96" y1="89.58" x2="682.47" y2="92.85" style="stroke-width:2.00;stroke:rgb(0,112,145)"/>
<!-- Edge:    41   52 -->
<line x1="123.51" y1="262.25" x2="140.75" y2="425.05" style="stroke-width:2.00;stroke:rgb(0,112,145)"/>
<!-- Edge:    42   91 -->
<line x1="682.47" y1="92.85" x2="581.13" y2="127.86" style="stroke-width:2.00;stroke:rgb(0,112,145)"/>
<!-- Edge:    42   97 -->
<line x1="682.47" y1="92.85" x2="717.85" y2="137.67" style="stroke-width:2.00;stroke:rgb(0,112,145)"/>
<!-- Edge:    42   64 -->
<line x1="682.47" y1="92.85" x2="716.82" y2="77.60" style="stroke-width:2.00;stroke:rgb(0,112,145)"/>
<!-- Edge:    42   61 -->
<line x1="682.47" y1="92.85" x2="751.29" y2="106.00" style="stroke-width:2.00;stroke:rgb(0,112,145)"/>
<!-- Edge:    43   45 -->
<line x1="1007.38" y1="528.82" x2="1044.96" y2="610.81" style="stroke-width:2.00;stroke:rgb(0,112,145)"/>
<!-- Edge:    44   49 -->
<line x1="1181.56" y1="440.36" x2="1179.62" y2="396.65" style="stroke-width:2.00;stroke:rgb(0,112,145)"/>
<!-- Edge:    44   73 -->
<line x1="1181.56" y1="440.36" x2="1192.71" y2="496.04" style="stroke-width:2.00;stroke:rgb(0,112,145)"/>
<!-- Edge:    46   78 -->
<line x1="81.00" y1="156.25" x2="194.40" y2="196.69" style="stroke-width:2.00;stroke:rgb(0,112,145)"/>
<!-- Edge:    46  102 -->
<line x1="81.00" y1="156.25" x2="37.45" y2="226.20" style="stroke-width:2.00;stroke:rgb(0,112,145)"/>
<!-- Edge:    47   87 -->
<line x1="603.42" y1="319.05" x2="589.29" y2="360.60" style="stroke-width:2.00;stroke:rgb(0,112,145)"/>
<!-- Edge:    48   87 -->
<line x1="655.13" y1="345.29" x2="589.29" y2="360.60" style="stroke-width:2.00;stroke:rgb(0,112,145)"/>
<!-- Edge:    50   82 -->
<line x1="974.07" y1="52.48" x2="946.73" y2="78.65" style="stroke-width:2.00;stroke:rgb(0,112,145)"/>
<!-- Edge:    51   74 -->
<line x1="249.09" y1="45.87" x2="185.33" y2="87.42" style="stroke-width:2.00;stroke:rgb(0,112,145)"/>
<!-- Edge:    52   85 -->
<line x1="140.75" y1="425.05" x2="272.42" y2="449.06" style="stroke-width:2.00;stroke:rgb(0,112,145)"/>
<!-- Edge:    52   75 -->
<line x1="140.75" y1="425.05" x2="181.18" y2="576.91" style="stroke-width:2.00;stroke:rgb(0,112,145)"/>
<!-- Edge:    52   62 -->
<line x1="140.75" y1="425.05" x2="252.07" y2="572.53" style="stroke-width:2.00;stroke:rgb(0,112,145)"/>
<!-- Edge:    52   54 -->
<line x1="140.75" y1="425.05" x2="43.55" y2="539.75" style="stroke-width:2.00;stroke:rgb(0,112,145)"/>
<!-- Edge:    52  102 -->
<line x1="140.75" y1="425.05" x2="37.45" y2="226.20" style="stroke-width:2.00;stroke:rgb(0,112,145)"/>
<!-- Edge:    53  101 -->
<line x1="326.07" y1="181.38" x2="364.56" y2="222.93" style="stroke-width:2.00;stroke:rgb(0,112,145)"/>
<!-- Edge:    56   60 -->
<line x1="1073.22" y1="179.22" x2="996.36" y2="185.76" style="stroke-width:2.00;stroke:rgb(0,112,145)"/>
<!-- Edge:    57   95 -->
<line x1="815.05" y1="529.93" x2="854.58" y2="573.64" style="stroke-width:2.00;stroke:rgb(0,112,145)"/>
<!-- Edge:    59   93 -->
<line x1="753.36" y1="314.66" x2="659.15" y2="277.50" style="stroke-width:2.00;stroke:rgb(0,112,145)"/>
<!-- Edge:    62   75 -->
<line x1="252.07" y1="572.53" x2="181.18" y2="576.91" style="stroke-width:2.00;stroke:rgb(0,112,145)"/>
<!-- Edge:    63   96 -->
<line x1="919.38" y1="267.68" x2="919.38" y2="230.52" style="stroke-width:2.00;stroke:rgb(0,112,145)"/>
<!-- Edge:    65   84 -->
<line x1="372.60" y1="388.99" x2="369.62" y2="335.40" style="stroke-width:2.00;stroke:rgb(0,112,145)"/>
<!-- Edge:    66   90 -->
<line x1="502.20" y1="322.32" x2="431.31" y2="427.20" style="stroke-width:2.00;stroke:rgb(0,112,145)"/>
<!-- Edge:    66   87 -->
<line x1="502.20" y1="322.32" x2="589.29" y2="360.60" style="stroke-width:2.00;stroke:rgb(0,112,145)"/>
<!-- Edge:    68   93 -->
<line x1="692.58" y1="220.70" x2="659.15" y2="277.50" style="stroke-width:2.00;stroke:rgb(0,112,145)"/>
<!-- Edge:    69   85 -->
<line x1="334.11" y1="508.08" x2="272.42" y2="449.06" style="stroke-width:2.00;stroke:rgb(0,112,145)"/>
<!-- Edge:    69   83 -->
<line x1="334.11" y1="508.08" x2="344.22" y2="469.80" style="stroke-width:2.00;stroke:rgb(0,112,145)"/>
<!-- Edge:    70   99 -->
<line x1="829.18" y1="197.73" x2="869.75" y2="123.47" style="stroke-width:2.00;stroke:rgb(0,112,145)"/>
<!-- Edge:    74   78 -->
<line x1="185.33" y1="87.42" x2="194.40" y2="196.69" style="stroke-width:2.00;stroke:rgb(0,112,145)"/>
<!-- Edge:    80  104 -->
<line x1="545.75" y1="204.35" x2="503.24" y2="191.19" style="stroke-width:2.00;stroke:rgb(0,112,145)"/>
<!-- Edge:    80  106 -->
<line x1="545.75" y1="204.35" x2="550.80" y2="168.29" style="stroke-width:2.00;stroke:rgb(0,112,145)"/>
<!-- Edge:    82   99 -->
<line x1="946.73" y1="78.65" x2="869.75" y2="123.47" style="stroke-width:2.00;stroke:rgb(0,112,145)"/>
<!-- Edge:    83   84 -->
<line x1="344.22" y1="469.80" x2="369.62" y2="335.40" style="stroke-width:2.00;stroke:rgb(0,112,145)"/>
<!-- Edge:    85   89 -->
<line x1="272.42" y1="449.06" x2="310.78" y2="567.10" style="stroke-width:2.00;stroke:rgb(0,112,145)"/>
<!-- Edge:    96   99 -->
<line x1="919.38" y1="230.52" x2="869.75" y2="123.47" style="stroke-width:2.00;stroke:rgb(0,112,145)"/>
<!-- Edge:   100  101 -->
<line x1="276.44" y1="335.40" x2="364.56" y2="222.93" style="stroke-width:2.00;stroke:rgb(0,112,145)"/>
<!-- Edge:   104  105 -->
<line x1="503.24" y1="191.19" x2="501.16" y2="161.68" style="stroke-width:2.00;stroke:rgb(0,112,145)"/>
<!-- Edge:   106  107 -->
<line x1="550.80" y1="168.29" x2="528.51" y2="134.40" style="stroke-width:2.00;stroke:rgb(0,112,145)"/>

<!-- Vertex:     1 -->
<ellipse cx="259.20" cy="378.07" rx="10.00" ry="10.00" style="fill:rgb(255,217,188);stroke:rgb(102,0,0);stroke-width:0.50;"/>
<text x="264.38" y="397.39" style="font-family:Arial Unicode MS;font-weight: bold;font-size:15px;fill:rgb(173,0,0)">ALLISON</text>
<!-- Vertex:     2 -->
<ellipse cx="602.38" cy="423.93" rx="10.00" ry="10.00" style="fill:rgb(255,217,188);stroke:rgb(102,0,0);stroke-width:0.50;"/>
<text x="607.56" y="443.25" style="font-family:Arial Unicode MS;font-weight: bold;font-size:15px;fill:rgb(173,0,0)">ANDREAS</text>
<!-- Vertex:     3 -->
<ellipse cx="160.96" cy="297.19" rx="10.00" ry="10.00" style="fill:rgb(255,217,188);stroke:rgb(102,0,0);stroke-width:0.50;"/>
<text x="166.14" y="316.51" style="font-family:Arial Unicode MS;font-weight: bold;font-size:15px;fill:rgb(173,0,0)">ANNIE</text>
<!-- Vertex:     4 -->
<ellipse cx="925.47" cy="417.39" rx="10.00" ry="10.00" style="fill:rgb(255,217,188);stroke:rgb(102,0,0);stroke-width:0.50;"/>
<text x="930.65" y="436.71" style="font-family:Arial Unicode MS;font-weight: bold;font-size:15px;fill:rgb(173,0,0)">APRIL</text>
<!-- Vertex:     5 -->
<ellipse cx="195.44" cy="404.24" rx="10.00" ry="10.00" style="fill:rgb(255,217,188);stroke:rgb(102,0,0);stroke-width:0.50;"/>
<text x="200.61" y="423.56" style="font-family:Arial Unicode MS;font-weight: bold;font-size:15px;fill:rgb(173,0,0)">ASHES</text>
<!-- Vertex:     6 -->
<ellipse cx="697.64" cy="172.61" rx="10.00" ry="10.00" style="fill:rgb(255,217,188);stroke:rgb(102,0,0);stroke-width:0.50;"/>
<text x="702.81" y="191.93" style="font-family:Arial Unicode MS;font-weight: bold;font-size:15px;fill:rgb(173,0,0)">BECKY</text>
<!-- Vertex:     7 -->
<ellipse cx="207.62" cy="327.82" rx="10.00" ry="10.00" style="fill:rgb(255,217,188);stroke:rgb(102,0,0);stroke-width:0.50;"/>
<text x="212.80" y="347.13" style="font-family:Arial Unicode MS;font-weight: bold;font-size:15px;fill:rgb(173,0,0)">BETH</text>
<!-- Vertex:     8 -->
<ellipse cx="984.18" cy="152.98" rx="10.00" ry="10.00" style="fill:rgb(255,217,188);stroke:rgb(102,0,0);stroke-width:0.50;"/>
<text x="989.36" y="172.30" style="font-family:Arial Unicode MS;font-weight: bold;font-size:15px;fill:rgb(173,0,0)">BLUE</text>
<!-- Vertex:     9 -->
<ellipse cx="371.56" cy="435.97" rx="10.00" ry="10.00" style="fill:rgb(255,217,188);stroke:rgb(102,0,0);stroke-width:0.50;"/>
<text x="376.74" y="455.29" style="font-family:Arial Unicode MS;font-weight: bold;font-size:15px;fill:rgb(173,0,0)">BRYONY</text>
<!-- Vertex:    10 -->
<ellipse cx="1074.25" cy="571.42" rx="10.00" ry="10.00" style="fill:rgb(255,217,188);stroke:rgb(102,0,0);stroke-width:0.50;"/>
<text x="1079.43" y="590.73" style="font-family:Arial Unicode MS;font-weight: bold;font-size:15px;fill:rgb(173,0,0)">BUMBLE_BEE</text>
<!-- Vertex:    11 -->
<ellipse cx="717.85" cy="539.75" rx="10.00" ry="10.00" style="fill:rgb(255,217,188);stroke:rgb(102,0,0);stroke-width:0.50;"/>
<text x="723.03" y="559.07" style="font-family:Arial Unicode MS;font-weight: bold;font-size:15px;fill:rgb(173,0,0)">CALANDER</text>
<!-- Vertex:    12 -->
<ellipse cx="501.16" cy="376.95" rx="10.00" ry="10.00" style="fill:rgb(255,217,188);stroke:rgb(102,0,0);stroke-width:0.50;"/>
<text x="506.34" y="396.27" style="font-family:Arial Unicode MS;font-weight: bold;font-size:15px;fill:rgb(173,0,0)">CAMILLA</text>
<!-- Vertex:    13 -->
<ellipse cx="298.73" cy="25.13" rx="10.00" ry="10.00" style="fill:rgb(255,217,188);stroke:rgb(102,0,0);stroke-width:0.50;"/>
<text x="303.90" y="44.44" style="font-family:Arial Unicode MS;font-weight: bold;font-size:15px;fill:rgb(173,0,0)">CAMMY</text>
<!-- Vertex:    14 -->
<ellipse cx="1019.56" cy="456.72" rx="10.00" ry="10.00" style="fill:rgb(255,217,188);stroke:rgb(102,0,0);stroke-width:0.50;"/>
<text x="1024.74" y="476.03" style="font-family:Arial Unicode MS;font-weight: bold;font-size:15px;fill:rgb(173,0,0)">CAROL</text>
<!-- Vertex:    15 -->
<ellipse cx="592.27" cy="37.17" rx="10.00" ry="10.00" style="fill:rgb(255,217,188);stroke:rgb(102,0,0);stroke-width:0.50;"/>
<text x="597.45" y="56.48" style="font-family:Arial Unicode MS;font-weight: bold;font-size:15px;fill:rgb(173,0,0)">CARRIE</text>
<!-- Vertex:    16 -->
<ellipse cx="899.16" cy="501.54" rx="10.00" ry="10.00" style="fill:rgb(255,217,188);stroke:rgb(102,0,0);stroke-width:0.50;"/>
<text x="904.34" y="520.86" style="font-family:Arial Unicode MS;font-weight: bold;font-size:15px;fill:rgb(173,0,0)">CHARLEY</text>
<!-- Vertex:    17 -->
<ellipse cx="74.91" cy="69.95" rx="10.00" ry="10.00" style="fill:rgb(255,217,188);stroke:rgb(102,0,0);stroke-width:0.50;"/>
<text x="80.09" y="89.27" style="font-family:Arial Unicode MS;font-weight: bold;font-size:15px;fill:rgb(173,0,0)">CHARLOTTE</text>
<!-- Vertex:    18 -->
<ellipse cx="912.25" cy="335.40" rx="10.00" ry="10.00" style="fill:rgb(255,217,188);stroke:rgb(102,0,0);stroke-width:0.50;"/>
<text x="917.43" y="354.72" style="font-family:Arial Unicode MS;font-weight: bold;font-size:15px;fill:rgb(173,0,0)">CHERUB</text>
<!-- Vertex:    19 -->
<ellipse cx="993.25" cy="115.81" rx="10.00" ry="10.00" style="fill:rgb(255,217,188);stroke:rgb(102,0,0);stroke-width:0.50;"/>
<text x="998.43" y="135.13" style="font-family:Arial Unicode MS;font-weight: bold;font-size:15px;fill:rgb(173,0,0)">CHIPPER</text>
<!-- Vertex:    20 -->
<ellipse cx="261.27" cy="231.63" rx="10.00" ry="10.00" style="fill:rgb(255,217,188);stroke:rgb(102,0,0);stroke-width:0.50;"/>
<text x="266.45" y="250.95" style="font-family:Arial Unicode MS;font-weight: bold;font-size:15px;fill:rgb(173,0,0)">CHRISTINE</text>
<!-- Vertex:    21 -->
<ellipse cx="558.96" cy="284.11" rx="10.00" ry="10.00" style="fill:rgb(255,217,188);stroke:rgb(102,0,0);stroke-width:0.50;"/>
<text x="564.14" y="303.43" style="font-family:Arial Unicode MS;font-weight: bold;font-size:15px;fill:rgb(173,0,0)">COVENANT_ONE</text>
<!-- Vertex:    22 -->
<ellipse cx="634.78" cy="243.67" rx="10.00" ry="10.00" style="fill:rgb(255,217,188);stroke:rgb(102,0,0);stroke-width:0.50;"/>
<text x="639.96" y="262.99" style="font-family:Arial Unicode MS;font-weight: bold;font-size:15px;fill:rgb(173,0,0)">DARK_RIDER</text>
<!-- Vertex:    23 -->
<ellipse cx="872.73" cy="77.60" rx="10.00" ry="10.00" style="fill:rgb(255,217,188);stroke:rgb(102,0,0);stroke-width:0.50;"/>
<text x="877.90" y="96.92" style="font-family:Arial Unicode MS;font-weight: bold;font-size:15px;fill:rgb(173,0,0)">DESTINY</text>
<!-- Vertex:    24 -->
<ellipse cx="422.24" cy="515.74" rx="10.00" ry="10.00" style="fill:rgb(255,217,188);stroke:rgb(102,0,0);stroke-width:0.50;"/>
<text x="427.41" y="535.05" style="font-family:Arial Unicode MS;font-weight: bold;font-size:15px;fill:rgb(173,0,0)">DIBBY</text>
<!-- Vertex:    25 -->
<ellipse cx="1197.76" cy="541.91" rx="10.00" ry="10.00" style="fill:rgb(255,217,188);stroke:rgb(102,0,0);stroke-width:0.50;"/>
<text x="1202.94" y="561.22" style="font-family:Arial Unicode MS;font-weight: bold;font-size:15px;fill:rgb(173,0,0)">DORDY</text>
<!-- Vertex:    26 -->
<ellipse cx="668.22" cy="509.19" rx="10.00" ry="10.00" style="fill:rgb(255,217,188);stroke:rgb(102,0,0);stroke-width:0.50;"/>
<text x="673.39" y="528.51" style="font-family:Arial Unicode MS;font-weight: bold;font-size:15px;fill:rgb(173,0,0)">DO_DO</text>
<!-- Vertex:    27 -->
<ellipse cx="616.64" cy="198.85" rx="10.00" ry="10.00" style="fill:rgb(255,217,188);stroke:rgb(102,0,0);stroke-width:0.50;"/>
<text x="621.81" y="218.17" style="font-family:Arial Unicode MS;font-weight: bold;font-size:15px;fill:rgb(173,0,0)">DRIVER</text>
<!-- Vertex:    28 -->
<ellipse cx="898.39" cy="170.24" rx="10.00" ry="10.00" style="fill:rgb(255,217,188);stroke:rgb(102,0,0);stroke-width:0.50;"/>
<text x="903.56" y="189.56" style="font-family:Arial Unicode MS;font-weight: bold;font-size:15px;fill:rgb(173,0,0)">DUNSHINE</text>
<!-- Vertex:    29 -->
<ellipse cx="807.93" cy="98.34" rx="10.00" ry="10.00" style="fill:rgb(255,217,188);stroke:rgb(102,0,0);stroke-width:0.50;"/>
<text x="813.10" y="117.66" style="font-family:Arial Unicode MS;font-weight: bold;font-size:15px;fill:rgb(173,0,0)">ELIZABETH</text>
<!-- Vertex:    30 -->
<ellipse cx="338.13" cy="88.53" rx="10.00" ry="10.00" style="fill:rgb(255,217,188);stroke:rgb(102,0,0);stroke-width:0.50;"/>
<text x="343.30" y="107.85" style="font-family:Arial Unicode MS;font-weight: bold;font-size:15px;fill:rgb(173,0,0)">ELLIOT</text>
<!-- Vertex:    31 -->
<ellipse cx="675.35" cy="50.25" rx="10.00" ry="10.00" style="fill:rgb(255,217,188);stroke:rgb(102,0,0);stroke-width:0.50;"/>
<text x="680.52" y="69.57" style="font-family:Arial Unicode MS;font-weight: bold;font-size:15px;fill:rgb(173,0,0)">EMILY_MAY</text>
<!-- Vertex:    32 -->
<ellipse cx="369.62" cy="62.29" rx="10.00" ry="10.00" style="fill:rgb(255,217,188);stroke:rgb(102,0,0);stroke-width:0.50;"/>
<text x="374.80" y="81.61" style="font-family:Arial Unicode MS;font-weight: bold;font-size:15px;fill:rgb(173,0,0)">ENOUGH</text>
<!-- Vertex:    33 -->
<ellipse cx="600.44" cy="469.80" rx="10.00" ry="10.00" style="fill:rgb(255,217,188);stroke:rgb(102,0,0);stroke-width:0.50;"/>
<text x="605.61" y="489.12" style="font-family:Arial Unicode MS;font-weight: bold;font-size:15px;fill:rgb(173,0,0)">ERICA</text>
<!-- Vertex:    34 -->
<ellipse cx="784.73" cy="464.37" rx="10.00" ry="10.00" style="fill:rgb(255,217,188);stroke:rgb(102,0,0);stroke-width:0.50;"/>
<text x="789.90" y="483.69" style="font-family:Arial Unicode MS;font-weight: bold;font-size:15px;fill:rgb(173,0,0)">FRANCIS</text>
<!-- Vertex:    35 -->
<ellipse cx="616.64" cy="548.52" rx="10.00" ry="10.00" style="fill:rgb(255,217,188);stroke:rgb(102,0,0);stroke-width:0.50;"/>
<text x="621.81" y="567.84" style="font-family:Arial Unicode MS;font-weight: bold;font-size:15px;fill:rgb(173,0,0)">FRIGHTENED_ONE</text>
<!-- Vertex:    36 -->
<ellipse cx="1062.07" cy="395.54" rx="10.00" ry="10.00" style="fill:rgb(255,217,188);stroke:rgb(102,0,0);stroke-width:0.50;"/>
<text x="1067.25" y="414.86" style="font-family:Arial Unicode MS;font-weight: bold;font-size:15px;fill:rgb(173,0,0)">GEORGE</text>
<!-- Vertex:    37 -->
<ellipse cx="671.33" cy="447.95" rx="10.00" ry="10.00" style="fill:rgb(255,217,188);stroke:rgb(102,0,0);stroke-width:0.50;"/>
<text x="676.50" y="467.26" style="font-family:Arial Unicode MS;font-weight: bold;font-size:15px;fill:rgb(173,0,0)">GUARDIAN</text>
<!-- Vertex:    38 -->
<ellipse cx="851.47" cy="369.30" rx="10.00" ry="10.00" style="fill:rgb(255,217,188);stroke:rgb(102,0,0);stroke-width:0.50;"/>
<text x="856.65" y="388.62" style="font-family:Arial Unicode MS;font-weight: bold;font-size:15px;fill:rgb(173,0,0)">HANDS</text>
<!-- Vertex:    39 -->
<ellipse cx="558.96" cy="89.58" rx="10.00" ry="10.00" style="fill:rgb(255,217,188);stroke:rgb(102,0,0);stroke-width:0.50;"/>
<text x="564.14" y="108.89" style="font-family:Arial Unicode MS;font-weight: bold;font-size:15px;fill:rgb(173,0,0)">HONESTY</text>
<!-- Vertex:    40 -->
<ellipse cx="743.13" cy="490.61" rx="10.00" ry="10.00" style="fill:rgb(255,217,188);stroke:rgb(102,0,0);stroke-width:0.50;"/>
<text x="748.30" y="509.93" style="font-family:Arial Unicode MS;font-weight: bold;font-size:15px;fill:rgb(173,0,0)">JACK</text>
<!-- Vertex:    41 -->
<ellipse cx="123.51" cy="262.25" rx="10.00" ry="10.00" style="fill:rgb(255,217,188);stroke:rgb(102,0,0);stroke-width:0.50;"/>
<text x="128.69" y="281.57" style="font-family:Arial Unicode MS;font-weight: bold;font-size:15px;fill:rgb(173,0,0)">JANEY</text>
<!-- Vertex:    42 -->
<ellipse cx="682.47" cy="92.85" rx="10.00" ry="10.00" style="fill:rgb(255,217,188);stroke:rgb(102,0,0);stroke-width:0.50;"/>
<text x="687.65" y="112.16" style="font-family:Arial Unicode MS;font-weight: bold;font-size:15px;fill:rgb(173,0,0)">JC</text>
<!-- Vertex:    43 -->
<ellipse cx="1007.38" cy="528.82" rx="10.00" ry="10.00" style="fill:rgb(255,217,188);stroke:rgb(102,0,0);stroke-width:0.50;"/>
<text x="1012.56" y="548.14" style="font-family:Arial Unicode MS;font-weight: bold;font-size:15px;fill:rgb(173,0,0)">JENNY_WREN</text>
<!-- Vertex:    44 -->
<ellipse cx="1181.56" cy="440.36" rx="10.00" ry="10.00" style="fill:rgb(255,217,188);stroke:rgb(102,0,0);stroke-width:0.50;"/>
<text x="1186.74" y="459.68" style="font-family:Arial Unicode MS;font-weight: bold;font-size:15px;fill:rgb(173,0,0)">JETHRO</text>
<!-- Vertex:    45 -->
<ellipse cx="1044.96" cy="610.81" rx="10.00" ry="10.00" style="fill:rgb(255,217,188);stroke:rgb(102,0,0);stroke-width:0.50;"/>
<text x="1050.14" y="630.13" style="font-family:Arial Unicode MS;font-weight: bold;font-size:15px;fill:rgb(173,0,0)">JEWELS</text>
<!-- Vertex:    46 -->
<ellipse cx="81.00" cy="156.25" rx="10.00" ry="10.00" style="fill:rgb(255,217,188);stroke:rgb(102,0,0);stroke-width:0.50;"/>
<text x="86.18" y="175.57" style="font-family:Arial Unicode MS;font-weight: bold;font-size:15px;fill:rgb(173,0,0)">JILL</text>
<!-- Vertex:    47 -->
<ellipse cx="603.42" cy="319.05" rx="10.00" ry="10.00" style="fill:rgb(255,217,188);stroke:rgb(102,0,0);stroke-width:0.50;"/>
<text x="608.59" y="338.36" style="font-family:Arial Unicode MS;font-weight: bold;font-size:15px;fill:rgb(173,0,0)">JOHN_THE_GREATER</text>
<!-- Vertex:    48 -->
<ellipse cx="655.13" cy="345.29" rx="10.00" ry="10.00" style="fill:rgb(255,217,188);stroke:rgb(102,0,0);stroke-width:0.50;"/>
<text x="660.30" y="364.60" style="font-family:Arial Unicode MS;font-weight: bold;font-size:15px;fill:rgb(173,0,0)">JOHN_THE_LESSER</text>
<!-- Vertex:    49 -->
<ellipse cx="1179.62" cy="396.65" rx="10.00" ry="10.00" style="fill:rgb(255,217,188);stroke:rgb(102,0,0);stroke-width:0.50;"/>
<text x="1184.80" y="415.97" style="font-family:Arial Unicode MS;font-weight: bold;font-size:15px;fill:rgb(173,0,0)">JUDE</text>
<!-- Vertex:    50 -->
<ellipse cx="974.07" cy="52.48" rx="10.00" ry="10.00" style="fill:rgb(255,217,188);stroke:rgb(102,0,0);stroke-width:0.50;"/>
<text x="979.25" y="71.80" style="font-family:Arial Unicode MS;font-weight: bold;font-size:15px;fill:rgb(173,0,0)">JUDE_ONE</text>
<!-- Vertex:    51 -->
<ellipse cx="249.09" cy="45.87" rx="10.00" ry="10.00" style="fill:rgb(255,217,188);stroke:rgb(102,0,0);stroke-width:0.50;"/>
<text x="254.27" y="65.18" style="font-family:Arial Unicode MS;font-weight: bold;font-size:15px;fill:rgb(173,0,0)">JULIE</text>
<!-- Vertex:    52 -->
<ellipse cx="140.75" cy="425.05" rx="10.00" ry="10.00" style="fill:rgb(255,217,188);stroke:rgb(102,0,0);stroke-width:0.50;"/>
<text x="145.92" y="444.37" style="font-family:Arial Unicode MS;font-weight: bold;font-size:15px;fill:rgb(173,0,0)">JU_JU</text>
<!-- Vertex:    53 -->
<ellipse cx="326.07" cy="181.38" rx="10.00" ry="10.00" style="fill:rgb(255,217,188);stroke:rgb(102,0,0);stroke-width:0.50;"/>
<text x="331.25" y="200.70" style="font-family:Arial Unicode MS;font-weight: bold;font-size:15px;fill:rgb(173,0,0)">KEITH</text>
<!-- Vertex:    54 -->
<ellipse cx="43.55" cy="539.75" rx="10.00" ry="10.00" style="fill:rgb(255,217,188);stroke:rgb(102,0,0);stroke-width:0.50;"/>
<text x="48.72" y="559.07" style="font-family:Arial Unicode MS;font-weight: bold;font-size:15px;fill:rgb(173,0,0)">LITTLE_GIRL</text>
<!-- Vertex:    55 -->
<ellipse cx="511.27" cy="42.60" rx="10.00" ry="10.00" style="fill:rgb(255,217,188);stroke:rgb(102,0,0);stroke-width:0.50;"/>
<text x="516.45" y="61.91" style="font-family:Arial Unicode MS;font-weight: bold;font-size:15px;fill:rgb(173,0,0)">LITTLE_JOEY</text>
<!-- Vertex:    56 -->
<ellipse cx="1073.22" cy="179.22" rx="10.00" ry="10.00" style="fill:rgb(255,217,188);stroke:rgb(102,0,0);stroke-width:0.50;"/>
<text x="1078.39" y="198.54" style="font-family:Arial Unicode MS;font-weight: bold;font-size:15px;fill:rgb(173,0,0)">LITTLE_JULIE</text>
<!-- Vertex:    57 -->
<ellipse cx="815.05" cy="529.93" rx="10.00" ry="10.00" style="fill:rgb(255,217,188);stroke:rgb(102,0,0);stroke-width:0.50;"/>
<text x="820.23" y="549.25" style="font-family:Arial Unicode MS;font-weight: bold;font-size:15px;fill:rgb(173,0,0)">LOCKED_IN</text>
<!-- Vertex:    58 -->
<ellipse cx="519.44" cy="444.67" rx="10.00" ry="10.00" style="fill:rgb(255,217,188);stroke:rgb(102,0,0);stroke-width:0.50;"/>
<text x="524.61" y="463.99" style="font-family:Arial Unicode MS;font-weight: bold;font-size:15px;fill:rgb(173,0,0)">LOU_LOU</text>
<!-- Vertex:    59 -->
<ellipse cx="753.36" cy="314.66" rx="10.00" ry="10.00" style="fill:rgb(255,217,188);stroke:rgb(102,0,0);stroke-width:0.50;"/>
<text x="758.54" y="333.98" style="font-family:Arial Unicode MS;font-weight: bold;font-size:15px;fill:rgb(173,0,0)">MAGICK</text>
<!-- Vertex:    60 -->
<ellipse cx="996.36" cy="185.76" rx="10.00" ry="10.00" style="fill:rgb(255,217,188);stroke:rgb(102,0,0);stroke-width:0.50;"/>
<text x="1001.54" y="205.08" style="font-family:Arial Unicode MS;font-weight: bold;font-size:15px;fill:rgb(173,0,0)">MANDY</text>
<!-- Vertex:    61 -->
<ellipse cx="751.29" cy="106.00" rx="10.00" ry="10.00" style="fill:rgb(255,217,188);stroke:rgb(102,0,0);stroke-width:0.50;"/>
<text x="756.47" y="125.32" style="font-family:Arial Unicode MS;font-weight: bold;font-size:15px;fill:rgb(173,0,0)">MARY</text>
<!-- Vertex:    62 -->
<ellipse cx="252.07" cy="572.53" rx="10.00" ry="10.00" style="fill:rgb(255,217,188);stroke:rgb(102,0,0);stroke-width:0.50;"/>
<text x="257.25" y="591.85" style="font-family:Arial Unicode MS;font-weight: bold;font-size:15px;fill:rgb(173,0,0)">MEG</text>
<!-- Vertex:    63 -->
<ellipse cx="919.38" cy="267.68" rx="10.00" ry="10.00" style="fill:rgb(255,217,188);stroke:rgb(102,0,0);stroke-width:0.50;"/>
<text x="924.56" y="287.00" style="font-family:Arial Unicode MS;font-weight: bold;font-size:15px;fill:rgb(173,0,0)">MIA</text>
<!-- Vertex:    64 -->
<ellipse cx="716.82" cy="77.60" rx="10.00" ry="10.00" style="fill:rgb(255,217,188);stroke:rgb(102,0,0);stroke-width:0.50;"/>
<text x="721.99" y="96.92" style="font-family:Arial Unicode MS;font-weight: bold;font-size:15px;fill:rgb(173,0,0)">MICHELLE</text>
<!-- Vertex:    65 -->
<ellipse cx="372.60" cy="388.99" rx="10.00" ry="10.00" style="fill:rgb(255,217,188);stroke:rgb(102,0,0);stroke-width:0.50;"/>
<text x="377.78" y="408.31" style="font-family:Arial Unicode MS;font-weight: bold;font-size:15px;fill:rgb(173,0,0)">MILLIE</text>
<!-- Vertex:    66 -->
<ellipse cx="502.20" cy="322.32" rx="10.00" ry="10.00" style="fill:rgb(255,217,188);stroke:rgb(102,0,0);stroke-width:0.50;"/>
<text x="507.38" y="341.64" style="font-family:Arial Unicode MS;font-weight: bold;font-size:15px;fill:rgb(173,0,0)">MIRANDA</text>
<!-- Vertex:    67 -->
<ellipse cx="588.25" cy="216.32" rx="10.00" ry="10.00" style="fill:rgb(255,217,188);stroke:rgb(102,0,0);stroke-width:0.50;"/>
<text x="593.43" y="235.64" style="font-family:Arial Unicode MS;font-weight: bold;font-size:15px;fill:rgb(173,0,0)">MORNING_STAR</text>
<!-- Vertex:    68 -->
<ellipse cx="692.58" cy="220.70" rx="10.00" ry="10.00" style="fill:rgb(255,217,188);stroke:rgb(102,0,0);stroke-width:0.50;"/>
<text x="697.76" y="240.02" style="font-family:Arial Unicode MS;font-weight: bold;font-size:15px;fill:rgb(173,0,0)">NAOMI</text>
<!-- Vertex:    69 -->
<ellipse cx="334.11" cy="508.08" rx="10.00" ry="10.00" style="fill:rgb(255,217,188);stroke:rgb(102,0,0);stroke-width:0.50;"/>
<text x="339.29" y="527.40" style="font-family:Arial Unicode MS;font-weight: bold;font-size:15px;fill:rgb(173,0,0)">NIGHT_TIME</text>
<!-- Vertex:    70 -->
<ellipse cx="829.18" cy="197.73" rx="10.00" ry="10.00" style="fill:rgb(255,217,188);stroke:rgb(102,0,0);stroke-width:0.50;"/>
<text x="834.36" y="217.05" style="font-family:Arial Unicode MS;font-weight: bold;font-size:15px;fill:rgb(173,0,0)">NODDY</text>
<!-- Vertex:    71 -->
<ellipse cx="690.51" cy="15.31" rx="10.00" ry="10.00" style="fill:rgb(255,217,188);stroke:rgb(102,0,0);stroke-width:0.50;"/>
<text x="695.69" y="34.63" style="font-family:Arial Unicode MS;font-weight: bold;font-size:15px;fill:rgb(173,0,0)">NOTHING</text>
<!-- Vertex:    72 -->
<ellipse cx="627.78" cy="8.77" rx="10.00" ry="10.00" style="fill:rgb(255,217,188);stroke:rgb(102,0,0);stroke-width:0.50;"/>
<text x="632.96" y="28.09" style="font-family:Arial Unicode MS;font-weight: bold;font-size:15px;fill:rgb(173,0,0)">OLD_NELL</text>
<!-- Vertex:    73 -->
<ellipse cx="1192.71" cy="496.04" rx="10.00" ry="10.00" style="fill:rgb(255,217,188);stroke:rgb(102,0,0);stroke-width:0.50;"/>
<text x="1197.89" y="515.36" style="font-family:Arial Unicode MS;font-weight: bold;font-size:15px;fill:rgb(173,0,0)">PANDA</text>
<!-- Vertex:    74 -->
<ellipse cx="185.33" cy="87.42" rx="10.00" ry="10.00" style="fill:rgb(255,217,188);stroke:rgb(102,0,0);stroke-width:0.50;"/>
<text x="190.50" y="106.74" style="font-family:Arial Unicode MS;font-weight: bold;font-size:15px;fill:rgb(173,0,0)">PATRICIA</text>
<!-- Vertex:    75 -->
<ellipse cx="181.18" cy="576.91" rx="10.00" ry="10.00" style="fill:rgb(255,217,188);stroke:rgb(102,0,0);stroke-width:0.50;"/>
<text x="186.36" y="596.23" style="font-family:Arial Unicode MS;font-weight: bold;font-size:15px;fill:rgb(173,0,0)">PEGGY</text>
<!-- Vertex:    76 -->
<ellipse cx="868.06" cy="35.22" rx="10.00" ry="10.00" style="fill:rgb(255,217,188);stroke:rgb(102,0,0);stroke-width:0.50;"/>
<text x="873.24" y="54.54" style="font-family:Arial Unicode MS;font-weight: bold;font-size:15px;fill:rgb(173,0,0)">PENNY</text>
<!-- Vertex:    77 -->
<ellipse cx="865.73" cy="303.73" rx="10.00" ry="10.00" style="fill:rgb(255,217,188);stroke:rgb(102,0,0);stroke-width:0.50;"/>
<text x="870.90" y="323.05" style="font-family:Arial Unicode MS;font-weight: bold;font-size:15px;fill:rgb(173,0,0)">PIPPA</text>
<!-- Vertex:    78 -->
<ellipse cx="194.40" cy="196.69" rx="10.00" ry="10.00" style="fill:rgb(255,217,188);stroke:rgb(102,0,0);stroke-width:0.50;"/>
<text x="199.58" y="216.01" style="font-family:Arial Unicode MS;font-weight: bold;font-size:15px;fill:rgb(173,0,0)">POLLY</text>
<!-- Vertex:    79 -->
<ellipse cx="711.76" cy="585.61" rx="10.00" ry="10.00" style="fill:rgb(255,217,188);stroke:rgb(102,0,0);stroke-width:0.50;"/>
<text x="716.94" y="604.93" style="font-family:Arial Unicode MS;font-weight: bold;font-size:15px;fill:rgb(173,0,0)">POPPY</text>
<!-- Vertex:    80 -->
<ellipse cx="545.75" cy="204.35" rx="10.00" ry="10.00" style="fill:rgb(255,217,188);stroke:rgb(102,0,0);stroke-width:0.50;"/>
<text x="550.92" y="223.66" style="font-family:Arial Unicode MS;font-weight: bold;font-size:15px;fill:rgb(173,0,0)">PUSSY</text>
<!-- Vertex:    81 -->
<ellipse cx="957.87" cy="322.32" rx="10.00" ry="10.00" style="fill:rgb(255,217,188);stroke:rgb(102,0,0);stroke-width:0.50;"/>
<text x="963.05" y="341.64" style="font-family:Arial Unicode MS;font-weight: bold;font-size:15px;fill:rgb(173,0,0)">QUIET_VICTORIA</text>
<!-- Vertex:    82 -->
<ellipse cx="946.73" cy="78.65" rx="10.00" ry="10.00" style="fill:rgb(255,217,188);stroke:rgb(102,0,0);stroke-width:0.50;"/>
<text x="951.90" y="97.97" style="font-family:Arial Unicode MS;font-weight: bold;font-size:15px;fill:rgb(173,0,0)">RED</text>
<!-- Vertex:    83 -->
<ellipse cx="344.22" cy="469.80" rx="10.00" ry="10.00" style="fill:rgb(255,217,188);stroke:rgb(102,0,0);stroke-width:0.50;"/>
<text x="349.39" y="489.12" style="font-family:Arial Unicode MS;font-weight: bold;font-size:15px;fill:rgb(173,0,0)">REJECT</text>
<!-- Vertex:    84 -->
<ellipse cx="369.62" cy="335.40" rx="10.00" ry="10.00" style="fill:rgb(255,217,188);stroke:rgb(102,0,0);stroke-width:0.50;"/>
<text x="374.80" y="354.72" style="font-family:Arial Unicode MS;font-weight: bold;font-size:15px;fill:rgb(173,0,0)">ROSY</text>
<!-- Vertex:    85 -->
<ellipse cx="272.42" cy="449.06" rx="10.00" ry="10.00" style="fill:rgb(255,217,188);stroke:rgb(102,0,0);stroke-width:0.50;"/>
<text x="277.60" y="468.38" style="font-family:Arial Unicode MS;font-weight: bold;font-size:15px;fill:rgb(173,0,0)">SARAH</text>
<!-- Vertex:    86 -->
<ellipse cx="778.64" cy="602.04" rx="10.00" ry="10.00" style="fill:rgb(255,217,188);stroke:rgb(102,0,0);stroke-width:0.50;"/>
<text x="783.81" y="621.36" style="font-family:Arial Unicode MS;font-weight: bold;font-size:15px;fill:rgb(173,0,0)">SAWDUST</text>
<!-- Vertex:    87 -->
<ellipse cx="589.29" cy="360.60" rx="10.00" ry="10.00" style="fill:rgb(255,217,188);stroke:rgb(102,0,0);stroke-width:0.50;"/>
<text x="594.47" y="379.92" style="font-family:Arial Unicode MS;font-weight: bold;font-size:15px;fill:rgb(173,0,0)">SECRET</text>
<!-- Vertex:    88 -->
<ellipse cx="753.36" cy="516.78" rx="10.00" ry="10.00" style="fill:rgb(255,217,188);stroke:rgb(102,0,0);stroke-width:0.50;"/>
<text x="758.54" y="536.10" style="font-family:Arial Unicode MS;font-weight: bold;font-size:15px;fill:rgb(173,0,0)">SILLY</text>
<!-- Vertex:    89 -->
<ellipse cx="310.78" cy="567.10" rx="10.00" ry="10.00" style="fill:rgb(255,217,188);stroke:rgb(102,0,0);stroke-width:0.50;"/>
<text x="315.96" y="586.42" style="font-family:Arial Unicode MS;font-weight: bold;font-size:15px;fill:rgb(173,0,0)">SKYE</text>
<!-- Vertex:    90 -->
<ellipse cx="431.31" cy="427.20" rx="10.00" ry="10.00" style="fill:rgb(255,217,188);stroke:rgb(102,0,0);stroke-width:0.50;"/>
<text x="436.49" y="446.52" style="font-family:Arial Unicode MS;font-weight: bold;font-size:15px;fill:rgb(173,0,0)">STEPHANIE</text>
<!-- Vertex:    91 -->
<ellipse cx="581.13" cy="127.86" rx="10.00" ry="10.00" style="fill:rgb(255,217,188);stroke:rgb(102,0,0);stroke-width:0.50;"/>
<text x="586.30" y="147.17" style="font-family:Arial Unicode MS;font-weight: bold;font-size:15px;fill:rgb(173,0,0)">STORMIE</text>
<!-- Vertex:    92 -->
<ellipse cx="645.02" cy="594.38" rx="10.00" ry="10.00" style="fill:rgb(255,217,188);stroke:rgb(102,0,0);stroke-width:0.50;"/>
<text x="650.20" y="613.70" style="font-family:Arial Unicode MS;font-weight: bold;font-size:15px;fill:rgb(173,0,0)">TEDDY</text>
<!-- Vertex:    93 -->
<ellipse cx="659.15" cy="277.50" rx="10.00" ry="10.00" style="fill:rgb(255,217,188);stroke:rgb(102,0,0);stroke-width:0.50;"/>
<text x="664.32" y="296.81" style="font-family:Arial Unicode MS;font-weight: bold;font-size:15px;fill:rgb(173,0,0)">TEMPLE_KEEPER</text>
<!-- Vertex:    94 -->
<ellipse cx="619.62" cy="158.41" rx="10.00" ry="10.00" style="fill:rgb(255,217,188);stroke:rgb(102,0,0);stroke-width:0.50;"/>
<text x="624.79" y="177.73" style="font-family:Arial Unicode MS;font-weight: bold;font-size:15px;fill:rgb(173,0,0)">THE_JUDGE</text>
<!-- Vertex:    95 -->
<ellipse cx="854.58" cy="573.64" rx="10.00" ry="10.00" style="fill:rgb(255,217,188);stroke:rgb(102,0,0);stroke-width:0.50;"/>
<text x="859.76" y="592.96" style="font-family:Arial Unicode MS;font-weight: bold;font-size:15px;fill:rgb(173,0,0)">THUMB</text>
<!-- Vertex:    96 -->
<ellipse cx="919.38" cy="230.52" rx="10.00" ry="10.00" style="fill:rgb(255,217,188);stroke:rgb(102,0,0);stroke-width:0.50;"/>
<text x="924.56" y="249.83" style="font-family:Arial Unicode MS;font-weight: bold;font-size:15px;fill:rgb(173,0,0)">TIC_TAC</text>
<!-- Vertex:    97 -->
<ellipse cx="717.85" cy="137.67" rx="10.00" ry="10.00" style="fill:rgb(255,217,188);stroke:rgb(102,0,0);stroke-width:0.50;"/>
<text x="723.03" y="156.99" style="font-family:Arial Unicode MS;font-weight: bold;font-size:15px;fill:rgb(173,0,0)">TITCH</text>
<!-- Vertex:    98 -->
<ellipse cx="989.24" cy="414.12" rx="10.00" ry="10.00" style="fill:rgb(255,217,188);stroke:rgb(102,0,0);stroke-width:0.50;"/>
<text x="994.41" y="433.44" style="font-family:Arial Unicode MS;font-weight: bold;font-size:15px;fill:rgb(173,0,0)">TWINKLE</text>
<!-- Vertex:    99 -->
<ellipse cx="869.75" cy="123.47" rx="10.00" ry="10.00" style="fill:rgb(255,217,188);stroke:rgb(102,0,0);stroke-width:0.50;"/>
<text x="874.92" y="142.79" style="font-family:Arial Unicode MS;font-weight: bold;font-size:15px;fill:rgb(173,0,0)">U_2</text>
<!-- Vertex:   100 -->
<ellipse cx="276.44" cy="335.40" rx="10.00" ry="10.00" style="fill:rgb(255,217,188);stroke:rgb(102,0,0);stroke-width:0.50;"/>
<text x="281.61" y="354.72" style="font-family:Arial Unicode MS;font-weight: bold;font-size:15px;fill:rgb(173,0,0)">VANESSA</text>
<!-- Vertex:   101 -->
<ellipse cx="364.56" cy="222.93" rx="10.00" ry="10.00" style="fill:rgb(255,217,188);stroke:rgb(102,0,0);stroke-width:0.50;"/>
<text x="369.74" y="242.25" style="font-family:Arial Unicode MS;font-weight: bold;font-size:15px;fill:rgb(173,0,0)">VERA</text>
<!-- Vertex:   102 -->
<ellipse cx="37.45" cy="226.20" rx="10.00" ry="10.00" style="fill:rgb(255,217,188);stroke:rgb(102,0,0);stroke-width:0.50;"/>
<text x="42.63" y="245.52" style="font-family:Arial Unicode MS;font-weight: bold;font-size:15px;fill:rgb(173,0,0)">WENDY</text>
<!-- Vertex:   103 -->
<ellipse cx="624.67" cy="69.95" rx="10.00" ry="10.00" style="fill:rgb(255,217,188);stroke:rgb(102,0,0);stroke-width:0.50;"/>
<text x="629.85" y="89.27" style="font-family:Arial Unicode MS;font-weight: bold;font-size:15px;fill:rgb(173,0,0)">WHISPER</text>
<!-- Vertex:   104 -->
<ellipse cx="503.24" cy="191.19" rx="10.00" ry="10.00" style="fill:rgb(255,217,188);stroke:rgb(102,0,0);stroke-width:0.50;"/>
<text x="508.41" y="210.51" style="font-family:Arial Unicode MS;font-weight: bold;font-size:15px;fill:rgb(173,0,0)">Z_1</text>
<!-- Vertex:   105 -->
<ellipse cx="501.16" cy="161.68" rx="10.00" ry="10.00" style="fill:rgb(255,217,188);stroke:rgb(102,0,0);stroke-width:0.50;"/>
<text x="506.34" y="181.00" style="font-family:Arial Unicode MS;font-weight: bold;font-size:15px;fill:rgb(173,0,0)">Z_2</text>
<!-- Vertex:   106 -->
<ellipse cx="550.80" cy="168.29" rx="10.00" ry="10.00" style="fill:rgb(255,217,188);stroke:rgb(102,0,0);stroke-width:0.50;"/>
<text x="555.98" y="187.61" style="font-family:Arial Unicode MS;font-weight: bold;font-size:15px;fill:rgb(173,0,0)">Z_3</text>
<!-- Vertex:   107 -->
<ellipse cx="528.51" cy="134.40" rx="10.00" ry="10.00" style="fill:rgb(255,217,188);stroke:rgb(102,0,0);stroke-width:0.50;"/>
<text x="533.69" y="153.72" style="font-family:Arial Unicode MS;font-weight: bold;font-size:15px;fill:rgb(173,0,0)">Z_4</text>
</g>         <!-- Layer Network -->
</svg>
